<svg version="1.2" xmlns="http://www.w3.org/2000/svg" viewBox="0 0 340 340" width="340" height="340">
	<title>Screenshot 2024-07-06 at 11</title>
	<style>
		.s0 { opacity: 1;fill: #c91a25 } 
	</style>
	<path id="Path 0" fill-rule="evenodd" class="s0" d="m169 7.1c0.8 0 3.8 1 6.5 2.2 2.8 1.2 14.5 7.8 26 14.6 11.6 6.8 25.1 14.7 30 17.6 4.9 2.9 11.3 6.5 14 8 2.8 1.5 6.9 4.1 9.3 5.6 2.3 1.6 4.4 2.9 4.7 2.9 0.3 0 5.8 3.1 12.3 6.9 6.4 3.7 15.5 9 20.2 11.7 4.7 2.7 10.2 6.5 12.4 8.4 2.1 1.9 4.5 5.1 5.3 7 1.3 2.9 1.6 13.9 2 68 0.3 37.2 0.1 68.3-0.4 73.5-0.6 4.9-1.7 10.6-2.6 12.5-1 1.9-2.8 4.9-4.2 6.5-1.4 1.6-13.5 9.6-26.8 17.7-13.3 8.1-31.6 19.2-40.7 24.6-9.1 5.5-23.2 13.8-31.5 18.6-8.2 4.8-19.2 10.8-24.4 13.4-5.4 2.7-10.7 4.7-12.5 4.6-2.2 0-11.3-4.9-29.8-16-14.7-8.7-33.9-20.1-42.5-25.2-8.7-5.1-21.2-12.6-27.8-16.7-6.6-4-15.4-9.3-19.5-11.6-4.1-2.3-9.4-5.6-11.8-7.3-2.5-1.9-4.8-4.6-5.7-6.9-1.2-3.1-1.6-14.9-2.1-70-0.3-36.4-0.2-70.3 0.2-75.2 0.7-8 1.1-9.5 3.9-13 1.7-2.2 5.3-5.7 8.1-7.7 2.7-2.1 10.5-7 17.3-11 6.8-4 32.3-19.2 56.5-33.7 24.3-14.5 45.9-27.2 48.1-28.2 2.2-1 4.7-1.8 5.5-1.8zm-21.5 27.6c-3.8 2.2-13.1 7.8-20.5 12.5-7.4 4.6-19.6 12-27 16.3-7.4 4.3-17.5 10.3-22.5 13.3-5 3.1-14.3 8.7-20.7 12.6-9.8 6-11.7 7.6-12.3 10.1-0.3 1.7-0.8 17.2-1.1 34.5-0.3 17.3-0.2 48.4 0.1 69l0.6 37.5c9.6 7.1 23.2 15.6 36.4 23.5 13.2 7.9 25.8 15.5 28 17 2.2 1.5 6 3.8 8.5 5.2 2.5 1.4 7.9 4.6 12 7 4.1 2.5 13.6 8.1 21 12.5 7.4 4.4 14.8 8.8 16.5 9.6 3 1.6 3.1 1.5 17.5-6.6 8-4.6 22.2-12.7 31.5-18.1 9.4-5.5 24.9-14.8 34.5-20.7 9.6-5.9 21.7-13.4 26.8-16.6 5.2-3.2 11.3-7.2 13.5-8.8 2.5-1.9 4.7-4.5 5.4-6.5 0.9-2.6 1.2-21.8 1.2-72.5l0.1-69c-15.9-9.5-25.1-15.1-30.7-18.4-5.7-3.4-10.5-6.1-10.8-6.1-0.3 0-6.8-3.8-14.5-8.5-7.7-4.7-14.2-8.5-14.5-8.5-0.3 0-6.5-3.4-13.7-7.6-7.3-4.2-16.9-9.8-21.3-12.5-4.4-2.6-8.3-4.8-8.7-4.9-0.5 0-3.3-1.6-6.3-3.5-3-1.9-6.1-3.7-6.8-4-0.7-0.3-4.4 1.4-8.2 3.8-3.9 2.4-10.2 6.2-14 8.4zm12.5 5.5c2.4 0.3 2.5 0.6 3.3 10.8 0.4 5.8 0.6 14.3 0.2 27.5l-4.8 3c-2.7 1.7-9.9 6.3-16 10.3-6.2 4-15 9.6-19.7 12.4-4.7 2.9-12.1 7.6-24.5 15.8l-10-5.2c-5.5-2.8-13.5-7.6-17.8-10.5-4.2-2.9-7.7-5.9-7.7-6.6-0.1-0.6 1.4-2.4 3.2-3.8 1.8-1.4 6.7-4.6 10.8-7.1 4.1-2.5 13.8-8 21.5-12.3 7.7-4.3 16.7-9.5 20-11.5 3.3-2.1 9.6-5.8 14-8.2 4.4-2.5 11.8-6.8 16.5-9.7 5.5-3.4 9.4-5.1 11-4.9zm-39 37.8c-14 8.4-26.2 15.5-27 15.8-0.8 0.3-3.3 1.7-5.5 3l-4 2.4c3.9 3 6.7 3.8 9 3.8 2.8 0 5.5-0.9 9-3.1 2.8-1.8 13.1-8.2 23-14.2 9.9-6.1 20.4-12.3 23.3-13.9l5.2-2.8c0-8.4-0.4-10-1.3-10-0.6 0-2.3 0.9-3.7 1.9-1.4 1-14 8.7-28 17.1zm57.3-38c1.2 0 6.5 2.4 11.7 5.2 5.2 2.9 18.1 10.3 28.5 16.6 10.4 6.3 24.4 14.5 31 18.2 6.6 3.6 13.8 7.7 16 9 2.2 1.2 5.5 3.4 7.3 4.9 1.8 1.4 3.3 3 3.2 3.6 0 0.6-2.9 2.8-6.3 4.9-3.4 2.2-9.3 5.7-13.2 7.9-3.9 2.1-8.1 4.9-9.5 6.2-1.4 1.4-3.2 2.5-4 2.5-0.8 0-3.7-1.5-6.5-3.4-2.7-1.8-8.1-5-12-7.1-3.9-2.1-11.7-6.8-17.5-10.5-5.8-3.7-14.1-8.6-18.5-10.8-4.4-2.2-9.2-5.2-13.5-9.2v-17.5c0-9.6 0.3-18.2 0.6-19 0.3-0.8 1.5-1.5 2.7-1.5zm9.7 27.5c0 2.1 1.7 3.5 11 9 6.1 3.6 11.2 6.5 11.5 6.5 0.3 0 4 2.4 8.3 5.2 4.3 2.9 12.2 7.5 17.5 10.3l9.6 5c4.3-3.3 5.7-5 5.9-5.9 0.1-1.1-2.4-2.8-9-5.9-5.1-2.4-14.5-7.5-20.8-11.4-6.3-3.8-16.3-9.5-22.2-12.6-8.3-4.3-10.9-5.2-11.3-4.1-0.3 0.8-0.5 2.5-0.5 3.9zm-17.5 23.8c2.2 0.3 6.9 2.1 10.5 4.2 3.6 2.1 7.8 4.5 9.5 5.5 1.7 0.9 6.8 4.1 11.5 7 4.7 2.9 11.4 6.9 15 8.8 3.6 1.9 8.3 4.7 10.5 6.2 2.2 1.5 5.2 4.1 6.8 5.9 1.5 1.7 3.2 5 3.8 7.3 0.7 2.9 1 14.7 0.7 35.3-0.3 24-0.7 31.6-1.7 33.5-0.8 1.4-2.8 3.8-4.5 5.3-1.7 1.5-7.7 5.8-13.3 9.5-5.5 3.7-15.2 9.6-21.4 13.2-6.2 3.6-14.9 8.4-19.3 10.7-4.5 2.4-8.8 4.3-9.6 4.3-0.8 0-7.8-3.8-15.5-8.5-7.7-4.7-17.8-10.9-22.5-14-4.7-3-12.9-7.9-18.2-11-7.1-4-10.1-6.3-10.9-8.3-0.7-1.8-0.9-14.3-0.7-37.2 0.2-19 0.7-35.2 1.1-36 0.4-0.8 5.3-4.9 11-9.1 5.6-4.2 16.5-11.3 24.2-15.9 7.7-4.6 15.3-9.4 17-10.6 1.7-1.3 5-3.2 7.5-4.4 3-1.4 5.8-1.9 8.5-1.7zm-23.5 29.3c-9.6 5.9-19.8 12.1-22.7 13.8-2.8 1.7-5.4 4-5.7 5.1-0.3 1.1-0.6 13.5-0.6 27.5 0 14 0.4 27.9 0.8 30.8 0.4 3.1 1.2 5.2 2 5.2 0.6 0 8.1 4.1 16.5 9.2 8.3 5 16.3 9.9 17.7 10.9 1.4 0.9 5.3 3.3 8.8 5.3l6.2 3.6c9.7-5.6 15.6-9.3 19.4-11.8 3.8-2.6 12.6-7.9 19.5-11.7l12.6-7c1-48.8 1.1-63.3 0.9-63.8-0.2-0.4-6.1-3.7-13.1-7.4-7.1-3.7-15-8.1-17.8-9.8-2.7-1.8-8.8-5.3-13.5-7.8-4.7-2.6-9.2-4.7-10.1-4.7-0.8 0-1.9 0.4-2.5 1-0.5 0.5-8.8 5.7-18.4 11.6zm138.3-9.5c0.4-0.1 1.2 1.1 1.8 2.6 0.7 1.9 0.9 20.2 0.7 55.8-0.3 44.8-0.5 53.4-1.8 55.8-0.8 1.5-1.9 2.8-2.5 2.8-0.6 0.1-1.7 0-2.5-0.1-0.8-0.1-4-2-7-4.1-3-2.2-8.9-6.2-20.5-13.8l-0.8-10.3c-0.4-5.7-0.4-23.8-0.1-40.3 0.6-28.7 0.8-30.1 2.8-32.3 1.1-1.3 5-4 8.6-6.1 3.6-2.1 8.5-4.9 11-6.1 2.4-1.3 5.6-2.7 7-3.1 1.4-0.4 2.8-0.8 3.2-0.8zm-18.3 26.9c-0.4 4.1-0.7 16.3-0.8 27 0 10.7 0.2 25.1 0.6 31.9 0.7 10.9 1 12.4 2.8 13.3 1.1 0.5 2.3 0.6 2.6 0.1 0.4-0.4 1-18.6 1.5-40.4 0.5-26.6 0.4-39.8-0.3-40.1-0.5-0.2-2.1-0.2-3.4 0.2-2.2 0.5-2.5 1.2-3 8zm-208.9-26c1.6 0 6.7 1.9 11.2 4.2 4.5 2.4 10.2 6.1 12.7 8.4 2.5 2.2 5.2 5.4 5.9 7 1 2.2 1.2 11.5 1 40-0.3 31.2-0.5 37.4-1.8 38.9-0.8 1-5.1 4.1-9.5 7-4.4 2.9-11 7.1-14.8 9.4-5 3.1-6.9 3.8-7.6 2.9-0.5-0.7-1.4-11.4-2-23.8-0.6-12.4-1.1-31.9-1.1-43.5 0-11.6 0.5-27.1 1-34.5 0.6-7.4 1.3-14.1 1.5-14.8 0.3-0.6 1.8-1.2 3.5-1.2zm8.5 62.3c-0.4 31.1-0.3 35.8 1 36.2 0.8 0.3 2.6-0.2 4-1l2.5-1.5c-0.5-73.9-0.6-75.2-2.5-76.6-1.1-0.8-2.3-1.4-2.7-1.4-0.3 0-0.9 1.9-1.2 4.2-0.4 2.4-0.8 20.4-1.1 40zm31.2 44.8c0.7 0 3.4 1.5 6.1 3.4 2.6 1.8 8.1 5.3 12.2 7.6 4.1 2.4 7.7 4.3 8 4.1 0.3-0.1 0.7 0.2 1 0.7 0.3 0.5 4.1 3.1 8.5 5.7 4.4 2.7 12.9 8.1 30 19.4l-0.3 17.3c-0.1 9.5-0.5 18.8-0.7 20.6-0.3 1.7-0.9 3.2-1.5 3.2-0.6 0-6.4-3.3-13-7.3-6.6-3.9-14.3-8.6-17-10.2-2.7-1.6-9.5-5.7-15-9-5.5-3.3-17.1-10.2-25.8-15.4-8.6-5.1-17.3-10.3-19.2-11.4-1.9-1.1-4.3-2.8-5.3-3.6-1-0.9-1.8-2.4-1.7-3.4 0-1 2.7-3.5 6.8-6.1 3.7-2.4 10.5-6.5 15.2-9.1 4.7-2.5 8.9-5 9.4-5.6 0.6-0.5 1.6-0.9 2.3-0.9zm-9.9 21.1c0.1 0.8 0.9 2.1 1.9 3 1 0.9 4.7 3.1 8.3 4.9 3.6 1.8 8.1 4.3 10 5.5 1.9 1.2 7.1 4.1 11.5 6.5 4.4 2.4 13.4 7.9 20 12.2 8.9 5.9 12.2 7.6 12.8 6.6 0.4-0.7 0.6-3.1 0.5-5.3-0.3-3.9-0.6-4.1-11.8-11.6-6.3-4.3-15.3-9.7-20-12.1-4.6-2.3-12.7-6.9-18-10-5.2-3.2-9.8-5.7-10.1-5.8-0.3 0-1.6 1-2.9 2.3-1.3 1.3-2.3 3-2.2 3.8zm156.4-21.1c1 0 2.6 0.9 3.5 1.9 1 1 4.3 3.3 7.3 5.1 3 1.8 7.3 4.6 9.5 6.4 2.2 1.7 5 4.2 6.2 5.6 1.2 1.4 2.3 3.2 2.3 4 0.1 0.8-2.3 3.3-5.2 5.6-2.9 2.3-13.3 8.9-23.1 14.7-9.7 5.9-17.8 10.7-18 10.7-0.1 0-4.5 2.4-9.7 5.3-5.2 2.9-12.2 7.1-15.5 9.2-3.3 2.2-9.6 5.9-14 8.2-4.4 2.4-8.9 4.3-10 4.3-1.7 0-2.1-0.8-2.6-5.7-0.3-3.2-0.3-12.5 0.6-35.8l3-1.4c1.7-0.8 9.1-5.1 16.5-9.6 7.4-4.5 17.1-10.4 21.5-13.2 4.4-2.7 12.1-7.3 17-10.1 4.9-2.8 9.8-5.2 10.7-5.2zm-18.5 27.2c-6.1 3.4-16.6 9.7-23.2 13.9-6.6 4.2-13.2 8.7-14.8 9.8-1.5 1.2-2.7 2.9-2.7 3.8 0 1 0.5 2.6 1.2 3.5 1.2 1.5 2.4 1 13.3-5.4 6.6-3.9 17.4-10.2 24-14.1 6.6-3.9 15.9-9 20.7-11.4 4.9-2.4 9-4.7 9.3-5.3 0.3-0.6-0.6-2.4-2-4-1.4-1.6-3.3-3-4.3-3-1 0-3.7 1.4-6 3-2.3 1.6-9.3 5.8-15.5 9.2zm-54.7-118.7c1.4 0.4 3.2 1.3 4 2 0.8 0.8 7.7 4.6 15.3 8.4 7.5 3.9 14.4 7.1 15.2 7.1 0.8 0 1.6 0.6 1.7 1.3 0.2 0.6 0.1 11.5-0.7 47.2l-3.5 1.1c-1.9 0.6-6.5 3-10.3 5.3-3.7 2.2-9.9 5.7-13.7 7.6-3.8 1.9-7.2 3.9-7.5 4.5-0.3 0.6-1.3 1-2.3 1-0.9-0.1-4.9-2.2-8.7-4.9-3.8-2.6-11-7-15.9-9.7-4.9-2.7-9.1-5.3-9.4-5.9-0.4-0.6-0.8-11.1-0.9-23.5-0.3-17.3-0.1-22.8 0.9-23.9 0.7-0.7 6-3.8 11.8-6.7 5.8-3 13-6.8 16-8.5 3.9-2.1 6.2-2.8 8-2.4zm-18.9 26.7l-3.1 1.8c-0.1 25.8 0.1 26.6 2.2 28.6 1.3 1.2 5.5 4 9.3 6.2 3.8 2.3 7.3 4.2 7.7 4.2 0.5 0 6-2.5 12.3-5.5l11.5-5.5v-27.5c-16.7-8.9-22.2-11.8-23.1-12-0.8-0.3-4.3 1.4-7.6 3.7-3.4 2.4-7.5 5.1-9.2 6z"/>
</svg>