<?xml version="1.0" standalone="no"?>
<!DOCTYPE svg PUBLIC "-//W3C//DTD SVG 20010904//EN"
 "http://www.w3.org/TR/2001/REC-SVG-20010904/DTD/svg10.dtd">
<svg version="1.0" xmlns="http://www.w3.org/2000/svg"
 width="511.000000pt" height="511.000000pt" viewBox="0 0 511.000000 511.000000"
 preserveAspectRatio="xMidYMid meet">
<metadata>
Created by potrace 1.14, written by Peter Selinger 2001-2017
</metadata>
<g transform="translate(0.000000,511.000000) scale(0.100000,-0.100000)"
fill="#000000" stroke="none">
<path d="M3864 4308 c-3 -5 -10 -6 -15 -3 -5 4 -9 2 -9 -2 0 -5 -9 -9 -21 -10
-12 -1 -27 -10 -35 -20 -7 -10 -14 -14 -14 -10 0 18 -98 -92 -118 -135 -20
-41 -23 -62 -21 -144 1 -69 7 -106 20 -132 l17 -37 -39 -36 c-21 -19 -39 -38
-39 -41 0 -3 -24 -31 -52 -61 -29 -31 -75 -81 -103 -111 -62 -69 -192 -207
-290 -308 -41 -43 -75 -82 -75 -88 0 -5 -3 -10 -7 -10 -5 0 -21 -26 -38 -58
-16 -31 -32 -59 -35 -62 -7 -7 -27 -40 -45 -75 -21 -40 -38 -70 -51 -86 -6 -8
-24 -39 -40 -69 -16 -30 -31 -57 -34 -60 -7 -6 -83 -136 -114 -195 -12 -22
-27 -46 -33 -53 -7 -7 -13 -20 -13 -28 0 -8 -4 -14 -10 -14 -5 0 -12 -11 -16
-25 -3 -14 -10 -25 -14 -25 -4 0 -13 -12 -19 -27 -18 -42 -43 -86 -58 -101 -7
-7 -13 -20 -13 -28 0 -8 -4 -14 -9 -14 -5 0 -14 -12 -20 -27 -10 -29 -42 -84
-52 -93 -3 -3 -19 -30 -35 -60 -16 -30 -31 -57 -35 -60 -3 -3 -19 -30 -35 -60
-16 -30 -32 -56 -36 -58 -5 -2 -8 -8 -8 -12 0 -5 -11 -26 -25 -46 -35 -52 -35
-125 0 -160 14 -14 30 -22 35 -19 6 3 10 2 10 -3 0 -5 14 -8 31 -7 35 2 94 50
124 103 11 17 23 32 27 32 4 0 8 6 8 13 0 8 9 22 20 32 11 10 20 24 20 32 0 7
7 16 15 19 8 4 15 12 15 20 0 8 5 14 10 14 6 0 10 7 10 15 0 8 5 15 10 15 6 0
10 6 10 14 0 8 7 16 15 20 8 3 15 10 15 16 0 6 9 20 20 32 11 12 20 28 20 35
0 7 4 13 8 13 5 0 24 24 42 53 19 28 42 61 52 71 10 11 18 26 18 33 0 7 5 13
10 13 6 0 10 7 10 15 0 9 7 18 15 21 8 4 15 10 15 16 0 5 6 15 13 22 6 8 19
24 27 36 8 12 23 33 33 45 9 13 17 28 17 34 0 5 6 14 13 18 7 4 37 44 67 88
83 123 94 140 103 143 4 2 7 8 7 14 0 5 6 15 13 22 6 8 19 24 27 36 8 12 23
33 33 45 9 13 17 27 17 32 0 4 12 19 25 32 14 13 25 29 25 36 0 7 7 15 15 19
8 3 15 12 15 20 0 8 3 16 8 18 4 2 25 30 47 63 22 33 50 71 63 85 12 14 22 28
22 33 0 4 5 13 10 20 39 47 50 62 55 78 4 11 11 19 16 19 5 0 13 8 16 18 4 9
11 22 15 27 5 6 20 24 33 40 14 17 25 34 25 38 0 4 9 17 20 29 11 12 20 28 20
35 0 7 5 13 10 13 6 0 18 16 27 35 9 19 20 35 23 35 4 0 20 19 36 43 16 23 37
51 47 62 11 11 23 30 28 43 6 15 13 20 21 15 19 -11 171 -12 186 0 6 5 12 7
12 4 0 -3 14 -1 30 4 17 6 30 15 30 21 0 5 4 7 9 4 10 -7 111 86 111 103 0 6
5 11 10 11 6 0 10 8 10 18 0 10 5 23 12 30 6 6 14 49 16 96 5 92 -13 165 -50
208 -11 12 -27 33 -35 46 -9 12 -21 22 -27 22 -6 0 -18 9 -26 19 -7 11 -17 18
-22 15 -4 -3 -8 0 -8 6 0 6 -4 8 -10 5 -5 -3 -10 -1 -10 5 0 6 -4 8 -10 5 -5
-3 -10 -1 -10 4 0 6 -3 10 -7 10 -5 -1 -10 0 -13 1 -15 7 -182 5 -186 -2z
m153 -199 c7 -6 13 -8 13 -5 0 4 9 -1 19 -11 31 -29 47 -103 32 -141 -13 -32
-61 -90 -61 -75 0 4 -4 2 -8 -4 -10 -16 -92 -25 -92 -10 0 6 -3 7 -7 4 -3 -4
-12 -2 -20 4 -7 6 -13 8 -13 5 0 -10 -22 14 -43 46 -18 30 -22 83 -8 120 9 24
51 76 51 64 0 -4 9 -1 21 7 23 16 94 14 116 -4z"/>
<path d="M2650 3526 c-14 -6 -28 -15 -32 -21 -5 -6 -8 -6 -8 0 -1 6 -9 -6 -20
-25 -32 -58 -25 -106 24 -155 19 -19 67 -76 121 -142 11 -14 35 -40 53 -59 17
-18 32 -36 32 -40 0 -4 13 -19 29 -35 24 -22 32 -25 44 -16 19 15 107 164 107
182 0 7 -15 29 -32 49 -42 47 -77 87 -108 126 -14 17 -42 50 -62 72 -21 23
-38 46 -38 51 0 6 -3 7 -7 4 -3 -4 -12 -2 -20 4 -19 16 -53 18 -83 5z"/>
<path d="M696 3226 l-210 -209 -4 -577 c-3 -318 -1 -603 2 -634 6 -47 14 -64
43 -94 l36 -37 796 -1 c480 0 801 3 808 9 8 6 13 35 13 77 0 66 15 112 48 148
6 7 12 20 12 28 0 8 4 14 8 14 5 0 17 17 26 39 10 21 31 58 47 82 l29 44 0
180 c0 99 -4 185 -8 191 -5 7 -112 10 -325 10 -186 -1 -317 3 -317 8 0 5 -3 6
-6 3 -9 -9 -43 31 -50 57 -3 12 -4 143 -2 293 l3 271 24 21 c13 11 28 18 32
15 5 -3 9 -1 9 3 0 5 131 8 290 8 160 0 290 3 290 8 0 4 4 6 8 3 11 -6 25 4
45 34 19 27 25 160 7 160 -5 0 -10 6 -10 13 0 39 -30 41 -745 41 l-690 1 -209
-209z"/>
<path d="M3349 2821 c-8 -9 -25 -32 -39 -51 -13 -19 -27 -37 -30 -40 -3 -3
-15 -20 -28 -38 -27 -39 -23 -63 19 -107 31 -32 75 -82 124 -141 17 -20 42
-49 56 -65 15 -16 42 -48 60 -70 19 -22 48 -56 64 -74 17 -19 44 -51 60 -71
17 -21 48 -56 70 -78 65 -66 59 -96 -48 -286 -57 -101 -97 -183 -97 -200 0
-10 7 -25 15 -34 8 -8 15 -18 15 -22 0 -4 17 -32 38 -63 45 -68 51 -77 81
-135 14 -25 28 -46 33 -46 4 0 8 -4 8 -10 0 -26 88 -142 102 -134 4 3 8 1 8
-5 0 -7 28 -8 38 -1 1 2 6 3 12 4 5 0 17 8 27 16 22 19 22 19 51 26 12 4 22
11 22 16 0 5 5 6 10 3 6 -3 10 -2 10 3 0 5 23 19 50 32 28 13 50 27 50 32 0 4
3 7 8 6 4 -2 25 8 47 21 22 14 42 25 45 26 13 3 76 39 81 47 3 5 8 9 10 8 9
-3 45 15 63 32 10 9 23 15 28 12 4 -3 8 0 8 5 0 6 3 10 8 9 12 -3 62 24 62 34
0 4 17 25 38 46 20 22 46 52 57 67 11 16 26 34 33 41 24 25 12 50 -20 45 -5 0
-8 4 -8 11 0 6 -3 8 -7 5 -3 -4 -12 -2 -20 4 -7 6 -13 8 -13 4 0 -4 -7 -2 -15
5 -8 6 -19 9 -25 5 -5 -3 -10 -2 -10 4 0 6 -6 8 -14 5 -8 -3 -17 -1 -20 5 -4
6 -13 8 -21 4 -8 -3 -15 0 -15 7 0 6 -4 9 -9 5 -5 -3 -12 -1 -16 4 -3 5 -14 8
-25 6 -11 -2 -20 -1 -20 3 0 4 -9 8 -19 9 -18 2 -108 87 -173 165 -16 18 -43
50 -60 72 -18 21 -48 53 -65 71 -18 19 -33 36 -33 40 0 4 -15 22 -32 40 -18
19 -46 50 -63 70 -16 20 -47 54 -67 75 -21 21 -38 41 -38 44 0 9 -30 44 -77
92 -24 24 -43 47 -43 51 0 5 -29 40 -65 78 -35 39 -77 85 -92 103 -15 18 -41
47 -58 65 -16 18 -42 48 -57 67 -32 39 -50 44 -69 21z"/>
<path d="M1090 1537 c0 -5 -9 -6 -19 -2 -11 3 -22 1 -25 -4 -4 -6 -13 -8 -21
-4 -8 3 -15 -1 -15 -8 0 -7 -3 -9 -7 -6 -3 4 -12 2 -20 -4 -7 -6 -13 -8 -13
-5 0 7 -16 -5 -55 -42 -14 -12 -28 -22 -32 -21 -5 0 -12 -8 -18 -18 -5 -10
-17 -25 -27 -33 -9 -9 -27 -36 -40 -60 -19 -37 -24 -63 -26 -153 -4 -101 -2
-112 24 -165 27 -56 136 -177 148 -165 3 4 6 2 6 -4 0 -10 44 -32 80 -41 8 -2
492 -5 1074 -6 741 -1 1066 2 1081 10 11 6 26 9 33 6 6 -2 12 1 12 7 0 6 3 10
8 9 27 -5 172 126 172 157 0 8 4 15 8 15 17 0 32 80 32 172 0 115 -25 184 -92
251 -54 54 -114 98 -122 90 -3 -4 -6 -1 -6 6 0 7 -6 11 -12 8 -7 -2 -22 1 -33
6 -24 13 -2095 17 -2095 4z m1990 -237 c3 -1 8 -2 13 -1 4 0 7 -4 7 -11 0 -6
3 -9 6 -5 15 15 74 -74 74 -113 0 -43 -66 -131 -92 -122 -5 1 -8 -1 -8 -5 0
-5 -439 -8 -975 -8 -584 0 -975 4 -975 9 0 5 -3 6 -7 3 -3 -4 -12 -2 -20 4 -7
6 -13 8 -13 4 0 -24 -50 55 -55 87 -9 52 26 126 66 140 16 5 29 13 29 16 0 6
1938 8 1950 2z"/>
</g>
</svg>
